<?xml version="1.0" encoding="UTF-8" standalone="no"?>
<svg
   xmlns:dc="http://purl.org/dc/elements/1.1/"
   xmlns:cc="http://creativecommons.org/ns#"
   xmlns:rdf="http://www.w3.org/1999/02/22-rdf-syntax-ns#"
   xmlns:svg="http://www.w3.org/2000/svg"
   xmlns="http://www.w3.org/2000/svg"
   xmlns:sodipodi="http://sodipodi.sourceforge.net/DTD/sodipodi-0.dtd"
   xmlns:inkscape="http://www.inkscape.org/namespaces/inkscape"
   version="1.1"
   id="Ebene_1"
   x="0px"
   y="0px"
   width="220.63339mm"
   height="157.50143mm"
   viewBox="0 0 833.89 595.281"
   enable-background="new 0 0 841.89 595.281"
   xml:space="preserve"
   sodipodi:docname="noldtronics_logo.svg"
   inkscape:version="1.0.2 (e86c870879, 2021-01-15)"><metadata
   id="metadata49"><rdf:RDF><cc:Work
       rdf:about=""><dc:format>image/svg+xml</dc:format><dc:type
         rdf:resource="http://purl.org/dc/dcmitype/StillImage" /><dc:title></dc:title></cc:Work></rdf:RDF></metadata><defs
   id="defs47">
	

	
	
</defs><sodipodi:namedview
   pagecolor="#ffffff"
   bordercolor="#666666"
   borderopacity="1"
   objecttolerance="10"
   gridtolerance="10"
   guidetolerance="10"
   inkscape:pageopacity="1"
   inkscape:pageshadow="2"
   inkscape:window-width="1920"
   inkscape:window-height="1027"
   id="namedview45"
   showgrid="false"
   inkscape:document-units="mm"
   units="mm"
   inkscape:zoom="1.3909397"
   inkscape:cx="289.73875"
   inkscape:cy="297.6405"
   inkscape:window-x="0"
   inkscape:window-y="0"
   inkscape:window-maximized="1"
   inkscape:current-layer="Ebene_1" />

<path
   d="m 278.261,272.684 39.604,7.37 c 0.991,0.179 2.05,1.121 2.351,2.082 l 7.19,17.959 28.234,-28.235 c -1.6,-6.658 -2.454,-13.606 -2.454,-20.756 0,-48.938 39.67,-88.608 88.608,-88.608 7.15,0 14.1,0.853 20.76,2.45 l 28.01,-28.01 -15.814,-6.473 c -0.955,-0.317 -1.887,-1.387 -2.074,-2.376 l -7.814,-41.994 c -0.184,-0.99 -1.158,-1.802 -2.166,-1.802 h -41.79 c -1.004,0 -1.979,0.812 -2.163,1.802 l -7.814,41.994 c -0.187,0.989 -1.115,2.059 -2.073,2.376 l -28.148,11.521 c -0.903,0.444 -2.324,0.343 -3.155,-0.227 L 342.477,117.68 c -0.836,-0.57 -2.096,-0.453 -2.808,0.26 l -29.548,29.546 c -0.712,0.714 -0.831,1.978 -0.26,2.807 l 23.659,34.479 c 0.565,0.833 0.654,2.241 0.194,3.138 l -12.449,29.035 c -0.332,0.953 -1.409,1.882 -2.402,2.066 l -40.598,7.552 c -0.992,0.187 -1.801,1.159 -1.801,2.167 l 0.003,41.786 c -0.005,1.005 0.804,1.985 1.794,2.168 z"
   id="path34"
   style="fill:#ffffff;fill-opacity:1" /><path
   d="m 605.333,226.562 -40.6,-7.552 c -0.988,-0.186 -2.068,-1.113 -2.402,-2.066 l -7.303,-17.037 -27.766,27.764 c 2.043,7.466 3.141,15.321 3.141,23.435 0,36.958 -22.629,68.626 -54.785,81.919 l 0.084,0.201 c -10.68,4.475 -22.182,6.805 -33.908,6.805 -8.078,0 -16.021,-1.1 -23.655,-3.23 l -28.828,28.828 0.77,0.313 1.876,1.002 c 0.326,0.168 0.676,0.221 1.005,0.178 l 15.654,6.406 c 0.699,0.23 1.434,1.072 1.571,1.801 L 418,417.32 c 0.249,1.354 1.524,2.414 2.902,2.414 h 41.789 c 1.379,0 2.652,-1.061 2.902,-2.414 l 7.814,-41.988 c 0.139,-0.73 0.873,-1.572 1.623,-1.822 l 15.211,-6.227 v -0.26 c 0.43,0.168 0.93,0.156 1.393,-0.076 l 14.199,-7.582 c 0.869,-0.508 2.26,-0.465 3.09,0.105 l 32.199,22.102 c 0.832,0.566 2.096,0.451 2.807,-0.258 l 29.551,-29.547 c 0.715,-0.715 0.828,-1.979 0.26,-2.809 l -22.496,-32.781 c -0.568,-0.83 -0.676,-2.246 -0.232,-3.15 l 12.361,-30.887 c 0.307,-0.96 1.357,-1.903 2.35,-2.083 l 39.605,-7.37 c 0.988,-0.179 1.799,-1.159 1.799,-2.167 l 0.006,-41.786 c -0.003,-1.013 -0.811,-1.987 -1.8,-2.172 z"
   id="path36"
   style="fill:#ffffff;fill-opacity:1" />
<path
   style="fill:#ffffff;fill-opacity:1"
   d="m 624.269,65.22 -23.691,32.509 -1.37,4.508 -71.73,71.882 -0.322,5.874 -11.711,11.828 1.857,5.377 -8.086,7.459 -0.424,5.776 -5.783,5.84 -5.023,-1.255 -0.395,0.364 1.344,16.828 -6.469,6.643 -14.349,6.007 -57.822,51.426 -6.919,1.818 -89.649,90.534 -46.825,34.836 -3.717,-3.68 -3.715,-3.681 34.369,-47.166 89.644,-90.54 1.749,-6.937 50.85,-58.326 5.867,-14.411 6.58,-6.536 16.838,1.182 0.361,-0.4 -1.307,-5.011 5.784,-5.839 5.769,-0.483 7.377,-8.162 5.399,1.808 11.708,-11.826 5.874,-0.383 71.169,-72.437 4.497,-1.414 z"
   id="polygon40" />
</svg>
